# https://github.com/mikedh/trimesh
v 0.04129635 0.00000000 0.05000000
v 0.04109749 0.00404775 0.05000000
v 0.04050285 0.00805652 0.05000000
v 0.03951814 0.01198770 0.05000000
v 0.03815285 0.01580343 0.05000000
v 0.03642013 0.01946696 0.05000000
v 0.03433666 0.02294302 0.05000000
v 0.03192251 0.02619813 0.05000000
v 0.02920093 0.02920093 0.05000000
v 0.02619813 0.03192251 0.05000000
v 0.02294302 0.03433666 0.05000000
v 0.01946696 0.03642013 0.05000000
v 0.01580343 0.03815285 0.05000000
v 0.01198770 0.03951814 0.05000000
v 0.00805652 0.04050285 0.05000000
v 0.00404775 0.04109749 0.05000000
v 0.00000000 0.04129635 0.05000000
v -0.00404775 0.04109749 0.05000000
v -0.00805652 0.04050285 0.05000000
v -0.01198770 0.03951814 0.05000000
v -0.01580343 0.03815285 0.05000000
v -0.01946696 0.03642013 0.05000000
v -0.02294302 0.03433666 0.05000000
v -0.02619813 0.03192251 0.05000000
v -0.02920093 0.02920093 0.05000000
v -0.03192251 0.02619813 0.05000000
v -0.03433666 0.02294302 0.05000000
v -0.03642013 0.01946696 0.05000000
v -0.03815285 0.01580343 0.05000000
v -0.03951814 0.01198770 0.05000000
v -0.04050285 0.00805652 0.05000000
v -0.04109749 0.00404775 0.05000000
v -0.04129635 0.00000000 0.05000000
v -0.04109749 -0.00404775 0.05000000
v -0.04050285 -0.00805652 0.05000000
v -0.03951814 -0.01198770 0.05000000
v -0.03815285 -0.01580343 0.05000000
v -0.03642013 -0.01946696 0.05000000
v -0.03433666 -0.02294302 0.05000000
v -0.03192251 -0.02619813 0.05000000
v -0.02920093 -0.02920093 0.05000000
v -0.02619813 -0.03192251 0.05000000
v -0.02294302 -0.03433666 0.05000000
v -0.01946696 -0.03642013 0.05000000
v -0.01580343 -0.03815285 0.05000000
v -0.01198770 -0.03951814 0.05000000
v -0.00805652 -0.04050285 0.05000000
v -0.00404775 -0.04109749 0.05000000
v -0.00000000 -0.04129635 0.05000000
v 0.00404775 -0.04109749 0.05000000
v 0.00805652 -0.04050285 0.05000000
v 0.01198770 -0.03951814 0.05000000
v 0.01580343 -0.03815285 0.05000000
v 0.01946696 -0.03642013 0.05000000
v 0.02294302 -0.03433666 0.05000000
v 0.02619813 -0.03192251 0.05000000
v 0.02920093 -0.02920093 0.05000000
v 0.03192251 -0.02619813 0.05000000
v 0.03433666 -0.02294302 0.05000000
v 0.03642013 -0.01946696 0.05000000
v 0.03815285 -0.01580343 0.05000000
v 0.03951814 -0.01198770 0.05000000
v 0.04050285 -0.00805652 0.05000000
v 0.04109749 -0.00404775 0.05000000
v 0.04129635 0.00000000 0.00000000
v 0.04109749 0.00404775 0.00000000
v 0.04050285 0.00805652 0.00000000
v 0.03951814 0.01198770 0.00000000
v 0.03815285 0.01580343 0.00000000
v 0.03642013 0.01946696 0.00000000
v 0.03433666 0.02294302 0.00000000
v 0.03192251 0.02619813 0.00000000
v 0.02920093 0.02920093 0.00000000
v 0.02619813 0.03192251 0.00000000
v 0.02294302 0.03433666 0.00000000
v 0.01946696 0.03642013 0.00000000
v 0.01580343 0.03815285 0.00000000
v 0.01198770 0.03951814 0.00000000
v 0.00805652 0.04050285 0.00000000
v 0.00404775 0.04109749 0.00000000
v 0.00000000 0.04129635 0.00000000
v -0.00404775 0.04109749 0.00000000
v -0.00805652 0.04050285 0.00000000
v -0.01198770 0.03951814 0.00000000
v -0.01580343 0.03815285 0.00000000
v -0.01946696 0.03642013 0.00000000
v -0.02294302 0.03433666 0.00000000
v -0.02619813 0.03192251 0.00000000
v -0.02920093 0.02920093 0.00000000
v -0.03192251 0.02619813 0.00000000
v -0.03433666 0.02294302 0.00000000
v -0.03642013 0.01946696 0.00000000
v -0.03815285 0.01580343 0.00000000
v -0.03951814 0.01198770 0.00000000
v -0.04050285 0.00805652 0.00000000
v -0.04109749 0.00404775 0.00000000
v -0.04129635 0.00000000 0.00000000
v -0.04109749 -0.00404775 0.00000000
v -0.04050285 -0.00805652 0.00000000
v -0.03951814 -0.01198770 0.00000000
v -0.03815285 -0.01580343 0.00000000
v -0.03642013 -0.01946696 0.00000000
v -0.03433666 -0.02294302 0.00000000
v -0.03192251 -0.02619813 0.00000000
v -0.02920093 -0.02920093 0.00000000
v -0.02619813 -0.03192251 0.00000000
v -0.02294302 -0.03433666 0.00000000
v -0.01946696 -0.03642013 0.00000000
v -0.01580343 -0.03815285 0.00000000
v -0.01198770 -0.03951814 0.00000000
v -0.00805652 -0.04050285 0.00000000
v -0.00404775 -0.04109749 0.00000000
v -0.00000000 -0.04129635 0.00000000
v 0.00404775 -0.04109749 0.00000000
v 0.00805652 -0.04050285 0.00000000
v 0.01198770 -0.03951814 0.00000000
v 0.01580343 -0.03815285 0.00000000
v 0.01946696 -0.03642013 0.00000000
v 0.02294302 -0.03433666 0.00000000
v 0.02619813 -0.03192251 0.00000000
v 0.02920093 -0.02920093 0.00000000
v 0.03192251 -0.02619813 0.00000000
v 0.03433666 -0.02294302 0.00000000
v 0.03642013 -0.01946696 0.00000000
v 0.03815285 -0.01580343 0.00000000
v 0.03951814 -0.01198770 0.00000000
v 0.04050285 -0.00805652 0.00000000
v 0.04109749 -0.00404775 0.00000000
v 0.01300000 0.00000000 0.05000000
v 0.01293740 0.00127422 0.05000000
v 0.01275021 0.00253617 0.05000000
v 0.01244022 0.00377370 0.05000000
v 0.01201043 0.00497488 0.05000000
v 0.01146498 0.00612816 0.05000000
v 0.01080910 0.00722241 0.05000000
v 0.01004914 0.00824711 0.05000000
v 0.00919239 0.00919239 0.05000000
v 0.00824711 0.01004914 0.05000000
v 0.00722241 0.01080910 0.05000000
v 0.00612816 0.01146498 0.05000000
v 0.00497488 0.01201043 0.05000000
v 0.00377370 0.01244022 0.05000000
v 0.00253617 0.01275021 0.05000000
v 0.00127422 0.01293740 0.05000000
v 0.00000000 0.01300000 0.05000000
v -0.00127422 0.01293740 0.05000000
v -0.00253617 0.01275021 0.05000000
v -0.00377370 0.01244022 0.05000000
v -0.00497488 0.01201043 0.05000000
v -0.00612816 0.01146498 0.05000000
v -0.00722241 0.01080910 0.05000000
v -0.00824711 0.01004914 0.05000000
v -0.00919239 0.00919239 0.05000000
v -0.01004914 0.00824711 0.05000000
v -0.01080910 0.00722241 0.05000000
v -0.01146498 0.00612816 0.05000000
v -0.01201043 0.00497488 0.05000000
v -0.01244022 0.00377370 0.05000000
v -0.01275021 0.00253617 0.05000000
v -0.01293740 0.00127422 0.05000000
v -0.01300000 0.00000000 0.05000000
v -0.01293740 -0.00127422 0.05000000
v -0.01275021 -0.00253617 0.05000000
v -0.01244022 -0.00377370 0.05000000
v -0.01201043 -0.00497488 0.05000000
v -0.01146498 -0.00612816 0.05000000
v -0.01080910 -0.00722241 0.05000000
v -0.01004914 -0.00824711 0.05000000
v -0.00919239 -0.00919239 0.05000000
v -0.00824711 -0.01004914 0.05000000
v -0.00722241 -0.01080910 0.05000000
v -0.00612816 -0.01146498 0.05000000
v -0.00497488 -0.01201043 0.05000000
v -0.00377370 -0.01244022 0.05000000
v -0.00253617 -0.01275021 0.05000000
v -0.00127422 -0.01293740 0.05000000
v -0.00000000 -0.01300000 0.05000000
v 0.00127422 -0.01293740 0.05000000
v 0.00253617 -0.01275021 0.05000000
v 0.00377370 -0.01244022 0.05000000
v 0.00497488 -0.01201043 0.05000000
v 0.00612816 -0.01146498 0.05000000
v 0.00722241 -0.01080910 0.05000000
v 0.00824711 -0.01004914 0.05000000
v 0.00919239 -0.00919239 0.05000000
v 0.01004914 -0.00824711 0.05000000
v 0.01080910 -0.00722241 0.05000000
v 0.01146498 -0.00612816 0.05000000
v 0.01201043 -0.00497488 0.05000000
v 0.01244022 -0.00377370 0.05000000
v 0.01275021 -0.00253617 0.05000000
v 0.01293740 -0.00127422 0.05000000
v 0.01300000 0.00000000 0.00000000
v 0.01293740 0.00127422 0.00000000
v 0.01275021 0.00253617 0.00000000
v 0.01244022 0.00377370 0.00000000
v 0.01201043 0.00497488 0.00000000
v 0.01146498 0.00612816 0.00000000
v 0.01080910 0.00722241 0.00000000
v 0.01004914 0.00824711 0.00000000
v 0.00919239 0.00919239 0.00000000
v 0.00824711 0.01004914 0.00000000
v 0.00722241 0.01080910 0.00000000
v 0.00612816 0.01146498 0.00000000
v 0.00497488 0.01201043 0.00000000
v 0.00377370 0.01244022 0.00000000
v 0.00253617 0.01275021 0.00000000
v 0.00127422 0.01293740 0.00000000
v 0.00000000 0.01300000 0.00000000
v -0.00127422 0.01293740 0.00000000
v -0.00253617 0.01275021 0.00000000
v -0.00377370 0.01244022 0.00000000
v -0.00497488 0.01201043 0.00000000
v -0.00612816 0.01146498 0.00000000
v -0.00722241 0.01080910 0.00000000
v -0.00824711 0.01004914 0.00000000
v -0.00919239 0.00919239 0.00000000
v -0.01004914 0.00824711 0.00000000
v -0.01080910 0.00722241 0.00000000
v -0.01146498 0.00612816 0.00000000
v -0.01201043 0.00497488 0.00000000
v -0.01244022 0.00377370 0.00000000
v -0.01275021 0.00253617 0.00000000
v -0.01293740 0.00127422 0.00000000
v -0.01300000 0.00000000 0.00000000
v -0.01293740 -0.00127422 0.00000000
v -0.01275021 -0.00253617 0.00000000
v -0.01244022 -0.00377370 0.00000000
v -0.01201043 -0.00497488 0.00000000
v -0.01146498 -0.00612816 0.00000000
v -0.01080910 -0.00722241 0.00000000
v -0.01004914 -0.00824711 0.00000000
v -0.00919239 -0.00919239 0.00000000
v -0.00824711 -0.01004914 0.00000000
v -0.00722241 -0.01080910 0.00000000
v -0.00612816 -0.01146498 0.00000000
v -0.00497488 -0.01201043 0.00000000
v -0.00377370 -0.01244022 0.00000000
v -0.00253617 -0.01275021 0.00000000
v -0.00127422 -0.01293740 0.00000000
v -0.00000000 -0.01300000 0.00000000
v 0.00127422 -0.01293740 0.00000000
v 0.00253617 -0.01275021 0.00000000
v 0.00377370 -0.01244022 0.00000000
v 0.00497488 -0.01201043 0.00000000
v 0.00612816 -0.01146498 0.00000000
v 0.00722241 -0.01080910 0.00000000
v 0.00824711 -0.01004914 0.00000000
v 0.00919239 -0.00919239 0.00000000
v 0.01004914 -0.00824711 0.00000000
v 0.01080910 -0.00722241 0.00000000
v 0.01146498 -0.00612816 0.00000000
v 0.01201043 -0.00497488 0.00000000
v 0.01244022 -0.00377370 0.00000000
v 0.01275021 -0.00253617 0.00000000
v 0.01293740 -0.00127422 0.00000000
f 65 2 1
f 65 66 2
f 130 193 129
f 194 193 130
f 2 129 1
f 130 129 2
f 193 66 65
f 193 194 66
f 66 3 2
f 66 67 3
f 131 194 130
f 195 194 131
f 3 130 2
f 131 130 3
f 194 67 66
f 194 195 67
f 67 4 3
f 67 68 4
f 132 195 131
f 196 195 132
f 4 131 3
f 132 131 4
f 195 68 67
f 195 196 68
f 68 5 4
f 68 69 5
f 133 196 132
f 197 196 133
f 5 132 4
f 133 132 5
f 196 69 68
f 196 197 69
f 69 6 5
f 69 70 6
f 134 197 133
f 198 197 134
f 6 133 5
f 134 133 6
f 197 70 69
f 197 198 70
f 70 7 6
f 70 71 7
f 135 198 134
f 199 198 135
f 7 134 6
f 135 134 7
f 198 71 70
f 198 199 71
f 71 8 7
f 71 72 8
f 136 199 135
f 200 199 136
f 8 135 7
f 136 135 8
f 199 72 71
f 199 200 72
f 72 9 8
f 72 73 9
f 137 200 136
f 201 200 137
f 9 136 8
f 137 136 9
f 200 73 72
f 200 201 73
f 73 10 9
f 73 74 10
f 138 201 137
f 202 201 138
f 10 137 9
f 138 137 10
f 201 74 73
f 201 202 74
f 74 11 10
f 74 75 11
f 139 202 138
f 203 202 139
f 11 138 10
f 139 138 11
f 202 75 74
f 202 203 75
f 75 12 11
f 75 76 12
f 140 203 139
f 204 203 140
f 12 139 11
f 140 139 12
f 203 76 75
f 203 204 76
f 76 13 12
f 76 77 13
f 141 204 140
f 205 204 141
f 13 140 12
f 141 140 13
f 204 77 76
f 204 205 77
f 77 14 13
f 77 78 14
f 142 205 141
f 206 205 142
f 14 141 13
f 142 141 14
f 205 78 77
f 205 206 78
f 78 15 14
f 78 79 15
f 143 206 142
f 207 206 143
f 15 142 14
f 143 142 15
f 206 79 78
f 206 207 79
f 79 16 15
f 79 80 16
f 144 207 143
f 208 207 144
f 16 143 15
f 144 143 16
f 207 80 79
f 207 208 80
f 80 17 16
f 80 81 17
f 145 208 144
f 209 208 145
f 17 144 16
f 145 144 17
f 208 81 80
f 208 209 81
f 81 18 17
f 81 82 18
f 146 209 145
f 210 209 146
f 18 145 17
f 146 145 18
f 209 82 81
f 209 210 82
f 82 19 18
f 82 83 19
f 147 210 146
f 211 210 147
f 19 146 18
f 147 146 19
f 210 83 82
f 210 211 83
f 83 20 19
f 83 84 20
f 148 211 147
f 212 211 148
f 20 147 19
f 148 147 20
f 211 84 83
f 211 212 84
f 84 21 20
f 84 85 21
f 149 212 148
f 213 212 149
f 21 148 20
f 149 148 21
f 212 85 84
f 212 213 85
f 85 22 21
f 85 86 22
f 150 213 149
f 214 213 150
f 22 149 21
f 150 149 22
f 213 86 85
f 213 214 86
f 86 23 22
f 86 87 23
f 151 214 150
f 215 214 151
f 23 150 22
f 151 150 23
f 214 87 86
f 214 215 87
f 87 24 23
f 87 88 24
f 152 215 151
f 216 215 152
f 24 151 23
f 152 151 24
f 215 88 87
f 215 216 88
f 88 25 24
f 88 89 25
f 153 216 152
f 217 216 153
f 25 152 24
f 153 152 25
f 216 89 88
f 216 217 89
f 89 26 25
f 89 90 26
f 154 217 153
f 218 217 154
f 26 153 25
f 154 153 26
f 217 90 89
f 217 218 90
f 90 27 26
f 90 91 27
f 155 218 154
f 219 218 155
f 27 154 26
f 155 154 27
f 218 91 90
f 218 219 91
f 91 28 27
f 91 92 28
f 156 219 155
f 220 219 156
f 28 155 27
f 156 155 28
f 219 92 91
f 219 220 92
f 92 29 28
f 92 93 29
f 157 220 156
f 221 220 157
f 29 156 28
f 157 156 29
f 220 93 92
f 220 221 93
f 93 30 29
f 93 94 30
f 158 221 157
f 222 221 158
f 30 157 29
f 158 157 30
f 221 94 93
f 221 222 94
f 94 31 30
f 94 95 31
f 159 222 158
f 223 222 159
f 31 158 30
f 159 158 31
f 222 95 94
f 222 223 95
f 95 32 31
f 95 96 32
f 160 223 159
f 224 223 160
f 32 159 31
f 160 159 32
f 223 96 95
f 223 224 96
f 96 33 32
f 96 97 33
f 161 224 160
f 225 224 161
f 33 160 32
f 161 160 33
f 224 97 96
f 224 225 97
f 97 34 33
f 97 98 34
f 162 225 161
f 226 225 162
f 34 161 33
f 162 161 34
f 225 98 97
f 225 226 98
f 98 35 34
f 98 99 35
f 163 226 162
f 227 226 163
f 35 162 34
f 163 162 35
f 226 99 98
f 226 227 99
f 99 36 35
f 99 100 36
f 164 227 163
f 228 227 164
f 36 163 35
f 164 163 36
f 227 100 99
f 227 228 100
f 100 37 36
f 100 101 37
f 165 228 164
f 229 228 165
f 37 164 36
f 165 164 37
f 228 101 100
f 228 229 101
f 101 38 37
f 101 102 38
f 166 229 165
f 230 229 166
f 38 165 37
f 166 165 38
f 229 102 101
f 229 230 102
f 102 39 38
f 102 103 39
f 167 230 166
f 231 230 167
f 39 166 38
f 167 166 39
f 230 103 102
f 230 231 103
f 103 40 39
f 103 104 40
f 168 231 167
f 232 231 168
f 40 167 39
f 168 167 40
f 231 104 103
f 231 232 104
f 104 41 40
f 104 105 41
f 169 232 168
f 233 232 169
f 41 168 40
f 169 168 41
f 232 105 104
f 232 233 105
f 105 42 41
f 105 106 42
f 170 233 169
f 234 233 170
f 42 169 41
f 170 169 42
f 233 106 105
f 233 234 106
f 106 43 42
f 106 107 43
f 171 234 170
f 235 234 171
f 43 170 42
f 171 170 43
f 234 107 106
f 234 235 107
f 107 44 43
f 107 108 44
f 172 235 171
f 236 235 172
f 44 171 43
f 172 171 44
f 235 108 107
f 235 236 108
f 108 45 44
f 108 109 45
f 173 236 172
f 237 236 173
f 45 172 44
f 173 172 45
f 236 109 108
f 236 237 109
f 109 46 45
f 109 110 46
f 174 237 173
f 238 237 174
f 46 173 45
f 174 173 46
f 237 110 109
f 237 238 110
f 110 47 46
f 110 111 47
f 175 238 174
f 239 238 175
f 47 174 46
f 175 174 47
f 238 111 110
f 238 239 111
f 111 48 47
f 111 112 48
f 176 239 175
f 240 239 176
f 48 175 47
f 176 175 48
f 239 112 111
f 239 240 112
f 112 49 48
f 112 113 49
f 177 240 176
f 241 240 177
f 49 176 48
f 177 176 49
f 240 113 112
f 240 241 113
f 113 50 49
f 113 114 50
f 178 241 177
f 242 241 178
f 50 177 49
f 178 177 50
f 241 114 113
f 241 242 114
f 114 51 50
f 114 115 51
f 179 242 178
f 243 242 179
f 51 178 50
f 179 178 51
f 242 115 114
f 242 243 115
f 115 52 51
f 115 116 52
f 180 243 179
f 244 243 180
f 52 179 51
f 180 179 52
f 243 116 115
f 243 244 116
f 116 53 52
f 116 117 53
f 181 244 180
f 245 244 181
f 53 180 52
f 181 180 53
f 244 117 116
f 244 245 117
f 117 54 53
f 117 118 54
f 182 245 181
f 246 245 182
f 54 181 53
f 182 181 54
f 245 118 117
f 245 246 118
f 118 55 54
f 118 119 55
f 183 246 182
f 247 246 183
f 55 182 54
f 183 182 55
f 246 119 118
f 246 247 119
f 119 56 55
f 119 120 56
f 184 247 183
f 248 247 184
f 56 183 55
f 184 183 56
f 247 120 119
f 247 248 120
f 120 57 56
f 120 121 57
f 185 248 184
f 249 248 185
f 57 184 56
f 185 184 57
f 248 121 120
f 248 249 121
f 121 58 57
f 121 122 58
f 186 249 185
f 250 249 186
f 58 185 57
f 186 185 58
f 249 122 121
f 249 250 122
f 122 59 58
f 122 123 59
f 187 250 186
f 251 250 187
f 59 186 58
f 187 186 59
f 250 123 122
f 250 251 123
f 123 60 59
f 123 124 60
f 188 251 187
f 252 251 188
f 60 187 59
f 188 187 60
f 251 124 123
f 251 252 124
f 124 61 60
f 124 125 61
f 189 252 188
f 253 252 189
f 61 188 60
f 189 188 61
f 252 125 124
f 252 253 125
f 125 62 61
f 125 126 62
f 190 253 189
f 254 253 190
f 62 189 61
f 190 189 62
f 253 126 125
f 253 254 126
f 126 63 62
f 126 127 63
f 191 254 190
f 255 254 191
f 63 190 62
f 191 190 63
f 254 127 126
f 254 255 127
f 127 64 63
f 127 128 64
f 192 255 191
f 256 255 192
f 64 191 63
f 192 191 64
f 255 128 127
f 255 256 128
f 128 1 64
f 128 65 1
f 129 256 192
f 193 256 129
f 1 192 64
f 129 192 1
f 256 65 128
f 256 193 65